<svg width="4" height="6" viewBox="0 0 4 6" fill="none" xmlns="http://www.w3.org/2000/svg">
<path d="M0.412337 0.0599516L0.0687507 0.360532C0.0228686 0.400584 -2.42742e-07 0.446721 -2.40462e-07 0.498882C-2.38187e-07 0.550916 0.0228686 0.597033 0.0687507 0.637085L2.76975 2.99997L0.0688232 5.36275C0.0229411 5.40282 7.21536e-05 5.44894 7.21559e-05 5.50103C7.21582e-05 5.55315 0.0229411 5.59927 0.0688232 5.63932L0.412433 5.93986C0.458219 5.97999 0.510938 6 0.570517 6C0.630049 6 0.682767 5.97993 0.728553 5.93986L3.9313 3.13826C3.97711 3.0982 4 3.05207 4 2.99997C4 2.94787 3.97711 2.90182 3.9313 2.86179L0.728553 0.0599516C0.682743 0.0198995 0.630024 -1.46749e-07 0.570517 -1.44147e-07C0.510938 -1.41543e-07 0.458219 0.0198996 0.412337 0.0599516Z" fill="#2D9CDB"/>
</svg>
