<svg width="8" height="13" viewBox="0 0 8 13" fill="none" xmlns="http://www.w3.org/2000/svg">
<path d="M6.80051 12.8701L7.45172 12.2188C7.53869 12.1321 7.58203 12.0321 7.58203 11.9191C7.58203 11.8063 7.53869 11.7064 7.45172 11.6196L2.33242 6.50007L7.45159 1.38072C7.53855 1.29389 7.58189 1.19397 7.58189 1.08109C7.58189 0.968171 7.53855 0.868251 7.45159 0.781472L6.80033 0.130306C6.71355 0.0433441 6.61363 -4.23301e-08 6.50071 -4.72661e-08C6.38788 -5.21981e-08 6.28796 0.043481 6.20118 0.130306L0.130901 6.20045C0.0440762 6.28723 0.000685889 6.38719 0.000685885 6.50007C0.00068588 6.61295 0.0440761 6.71273 0.130901 6.79946L6.20118 12.8701C6.288 12.9569 6.38792 13 6.50071 13C6.61363 13 6.71355 12.9569 6.80051 12.8701Z" fill="#858585"/>
</svg>
