<svg width="23" height="9" viewBox="0 0 23 9" fill="none" xmlns="http://www.w3.org/2000/svg">
<path d="M22.2804 2.77635H21.4231C20.7549 1.1479 19.1701 0 17.3259 0C15.4716 0 13.8798 1.16025 13.2181 2.80257C12.1418 2.24259 10.8501 2.24468 9.77425 2.81549C9.11567 1.16633 7.52038 0 5.66117 0C3.81694 0 2.23214 1.1479 1.56401 2.77635H0.719634C0.322168 2.77635 0 3.10318 0 3.5064C0 3.90961 0.322168 4.23645 0.719634 4.23645H1.23323C1.22817 4.32366 1.22536 4.41145 1.22536 4.5C1.22536 6.98125 3.21531 9 5.66117 9C8.10721 9 10.097 6.98125 10.097 4.5C10.097 4.44527 10.0957 4.39093 10.0938 4.33677C10.914 3.68558 12.0697 3.68102 12.8942 4.3134C12.8916 4.37535 12.8901 4.43748 12.8901 4.5C12.8901 6.98125 14.8799 9 17.3259 9C19.7718 9 21.7615 6.98125 21.7615 4.5C21.7615 4.41145 21.7587 4.32366 21.7538 4.23645H22.2804C22.6778 4.23645 23 3.90961 23 3.5064C23 3.10318 22.6778 2.77635 22.2804 2.77635Z" fill="#E0E0E0"/>
</svg>
