<svg width="22" height="28" viewBox="0 0 22 28" fill="none" xmlns="http://www.w3.org/2000/svg">
<path d="M21.4462 24.9251L19.6462 17.2599C19.4455 16.471 18.7272 15.9202 17.8998 15.9202H14.4023C13.9076 15.1219 13.2625 14.4219 12.4998 13.8588V8.84454C12.4998 7.51139 11.0469 6.6961 9.89468 7.26218L6.29466 9.03108C5.68089 9.33253 5.30573 9.93887 5.30573 10.6134V12.8759C5.29457 12.8797 5.28325 12.8809 5.2722 12.8851C2.37328 13.9978 0.5 16.6935 0.5 19.7528C0.5 23.817 3.86449 27.1233 8.00011 27.1233C12.1636 27.1233 15.6604 23.7353 15.4869 19.458H16.4945L17.9535 25.7836C18.1939 26.7268 19.1601 27.312 20.1368 27.0706C21.0991 26.8342 21.6865 25.8717 21.4462 24.9251ZM8.00001 25.3544C4.85698 25.3544 2.29996 22.8415 2.29996 19.7529C2.29996 17.6566 3.4635 15.7939 5.30568 14.826V17.0995C5.30568 18.0749 6.10711 18.8684 7.0997 18.8684C8.0923 18.8684 8.89972 18.0749 8.89972 17.0995V14.2044C8.94425 14.2198 8.9891 14.2348 9.03713 14.2435C11.7389 14.7311 13.7001 17.0483 13.7001 19.7529C13.7001 22.8415 11.143 25.3544 8.00001 25.3544Z" fill="#1BBEF2"/>
<path d="M10.9998 0C9.51098 0 8.29978 1.19022 8.29978 2.65338C8.29978 4.11654 9.51093 5.30676 10.9998 5.30676C12.4887 5.30676 13.6999 4.11654 13.6999 2.65338C13.6999 1.19022 12.4887 0 10.9998 0Z" fill="#1BBEF2"/>
</svg>
