<svg width="18" height="28" viewBox="0 0 18 28" fill="none" xmlns="http://www.w3.org/2000/svg">
<path d="M17.3841 12.5632C15.5863 9.94128 13.1277 8.15777 10.1723 7.0693C8.73576 6.70329 6.85535 7.62143 6.81635 7.66629C6.72013 7.69787 6.62348 7.73858 6.52556 7.79757C6.22035 7.98286 6.02833 8.21427 5.91515 8.46603C5.45904 8.73067 4.98385 8.96124 4.47517 9.12326C3.92792 9.29734 3.37771 9.31852 3.0831 9.14902C3.10048 9.15858 3.01739 9.09418 2.9661 8.94711C2.87242 8.67666 2.89828 8.43404 2.91947 8.13741C2.98263 7.2334 3.49809 6.31568 3.93386 5.54336C4.72061 4.14871 2.5439 2.9032 1.75757 4.29702C0.694865 6.1819 -0.524261 9.12326 1.34978 10.9334C2.79739 12.3305 4.95545 11.7551 6.67901 10.8673C6.76337 10.9973 6.85408 11.1245 6.95836 11.2449C7.07281 11.3762 7.17794 11.5121 7.28476 11.6471C7.85236 12.5985 7.87355 15.0326 7.87355 15.0326C7.87355 15.0326 5.89565 21.6531 6.05927 25.2264C6.15889 27.4075 9.62509 27.417 9.5242 25.2264C9.39915 22.4869 9.7548 19.8613 10.6624 17.3084C10.826 17.3807 10.9951 17.4376 11.1689 17.4779C11.327 20.3428 11.7785 23.1732 12.6309 25.9339C13.2753 28.0248 16.6198 27.1337 15.9717 25.0315C14.9997 21.8754 14.5851 18.6881 14.5639 15.3982C14.5631 15.1472 14.4037 14.4148 14.3681 14.2557C14.1892 13.458 13.9365 12.6965 13.6212 11.9649C14.2049 12.5104 14.7377 13.1215 15.2074 13.8083C16.1103 15.1244 18.2942 13.8888 17.3841 12.5632Z" fill="#C4C4C4"/>
<path d="M8.98828 6.5C10.5739 6.5 11.8594 5.2408 11.8594 3.6875C11.8594 2.1342 10.5739 0.875 8.98828 0.875C7.40262 0.875 6.11719 2.1342 6.11719 3.6875C6.11719 5.2408 7.40262 6.5 8.98828 6.5Z" fill="#C4C4C4"/>
</svg>
