<svg width="28" height="12" viewBox="0 0 28 12" fill="none" xmlns="http://www.w3.org/2000/svg">
<path d="M27.1239 4.02766H26.0802C25.2669 2.03185 23.3376 0.625 21.0924 0.625C18.8349 0.625 16.8972 2.04699 16.0916 4.0598C14.7813 3.37349 13.2089 3.37606 11.8991 4.07564C11.0973 2.05444 9.15524 0.625 6.89186 0.625C4.64671 0.625 2.71739 2.03185 1.90402 4.02766H0.876076C0.392205 4.02766 0 4.42822 0 4.9224C0 5.41658 0.392205 5.81714 0.876076 5.81714H1.50132C1.49517 5.92404 1.49175 6.03163 1.49175 6.14015C1.49175 9.18115 3.91429 11.6553 6.89186 11.6553C9.86965 11.6553 12.292 9.18115 12.292 6.14015C12.292 6.07308 12.2904 6.00648 12.2881 5.9401C13.2866 5.14201 14.6935 5.13642 15.6973 5.91146C15.6941 5.98738 15.6923 6.06353 15.6923 6.14015C15.6923 9.18115 18.1146 11.6553 21.0924 11.6553C24.07 11.6553 26.4923 9.18115 26.4923 6.14015C26.4923 6.03163 26.4889 5.92404 26.4829 5.81714H27.1239C27.6078 5.81714 28 5.41658 28 4.9224C28 4.42822 27.6078 4.02766 27.1239 4.02766Z" fill="#C4C4C4"/>
</svg>
