<svg width="12" height="20" viewBox="0 0 12 20" fill="none" xmlns="http://www.w3.org/2000/svg">
<path d="M11.8485 8.90526C10.5962 6.90764 8.88355 5.54877 6.82481 4.71946C5.82409 4.4406 4.5142 5.14013 4.48704 5.17432C4.42001 5.19838 4.35268 5.2294 4.28447 5.27434C4.07187 5.41552 3.9381 5.59182 3.85926 5.78364C3.54153 5.98527 3.21052 6.16094 2.85617 6.28439C2.47496 6.41702 2.09168 6.43316 1.88646 6.30402C1.89856 6.3113 1.84069 6.26223 1.80496 6.15018C1.7397 5.94412 1.75771 5.75927 1.77248 5.53327C1.81647 4.84449 2.17554 4.14528 2.4791 3.55685C3.02715 2.49426 1.51085 1.5453 0.963098 2.60726C0.222817 4.04336 -0.626424 6.28439 0.679034 7.66352C1.68743 8.72801 3.19073 8.28961 4.39137 7.61319C4.45013 7.71226 4.51332 7.80912 4.58596 7.90091C4.66569 8.00094 4.73892 8.10444 4.81333 8.20731C5.20872 8.93217 5.22348 10.7867 5.22348 10.7867C5.22348 10.7867 3.84568 15.8309 3.95966 18.5534C4.02905 20.2152 6.4436 20.2225 6.37332 18.5534C6.28621 16.4662 6.53396 14.4658 7.16616 12.5207C7.28014 12.5757 7.39796 12.6191 7.51903 12.6498C7.62917 14.8326 7.94365 16.9891 8.53747 19.0925C8.98631 20.6856 11.3161 20.0066 10.8646 18.405C10.1875 16.0003 9.89874 13.5719 9.88397 11.0653C9.88338 10.8741 9.77236 10.316 9.74755 10.1948C9.62294 9.58707 9.44695 9.00687 9.22726 8.44946C9.63387 8.86506 10.005 9.33068 10.3322 9.85391C10.9612 10.8567 12.4825 9.91531 11.8485 8.90526Z" fill="#E0E0E0"/>
<path d="M6 4.28571C7.10457 4.28571 8 3.32632 8 2.14286C8 0.95939 7.10457 0 6 0C4.89543 0 4 0.95939 4 2.14286C4 3.32632 4.89543 4.28571 6 4.28571Z" fill="#E0E0E0"/>
</svg>
