<svg width="29" height="27" viewBox="0 0 29 27" fill="none" xmlns="http://www.w3.org/2000/svg">
<g clip-path="url(#clip0_1_60)">
<path d="M12.6914 16.0293L17.4081 13.5001L12.6914 10.9709V16.0293Z" fill="#B9B9B9"/>
<path d="M14.5 0C6.4931 0 0 6.0453 0 13.5C0 20.9547 6.4931 27 14.5 27C22.5069 27 29 20.9547 29 13.5C29 6.0453 22.5069 0 14.5 0ZM23.5603 13.5138C23.5603 13.5138 23.5603 16.2517 23.1873 17.5719C22.9782 18.2945 22.3662 18.8643 21.59 19.0587C20.172 19.4062 14.5 19.4062 14.5 19.4062C14.5 19.4062 8.8428 19.4062 7.40997 19.0449C6.63381 18.8505 6.02183 18.2805 5.81274 17.5579C5.43949 16.2517 5.43949 13.5 5.43949 13.5C5.43949 13.5 5.43949 10.7623 5.81274 9.44213C6.02161 8.71951 6.64864 8.13572 7.40997 7.94126C8.82797 7.59375 14.5 7.59375 14.5 7.59375C14.5 7.59375 20.172 7.59375 21.59 7.95506C22.3662 8.14952 22.9782 8.71951 23.1873 9.44213C23.5753 10.7623 23.5603 13.5138 23.5603 13.5138Z" fill="#B9B9B9"/>
</g>
<defs>
<clipPath id="clip0_1_60">
<rect width="29" height="27" fill="white"/>
</clipPath>
</defs>
</svg>
