<svg width="6" height="10" viewBox="0 0 6 10" fill="none" xmlns="http://www.w3.org/2000/svg">
<path d="M0.618505 0.0999193L0.103126 0.600886C0.0343028 0.66764 -4.04569e-07 0.744537 -4.00769e-07 0.83147C-3.96978e-07 0.918194 0.0343028 0.995055 0.103126 1.06181L4.15463 4.99995L0.103235 8.93791C0.0344116 9.0047 0.000108226 9.08156 0.00010823 9.16839C0.000108234 9.25525 0.0344116 9.33211 0.103235 9.39887L0.61865 9.89976C0.687329 9.96666 0.766407 10 0.855776 10C0.945073 10 1.02415 9.96655 1.09283 9.89976L5.89695 5.23043C5.96566 5.16367 6 5.08678 6 4.99995C6 4.91312 5.96566 4.83636 5.89695 4.76964L1.09283 0.0999193C1.02411 0.0331658 0.945036 -4.13089e-08 0.855775 -3.74072e-08C0.766406 -3.35007e-08 0.687328 0.0331658 0.618505 0.0999193Z" fill="#1BBEF2"/>
</svg>
