<svg width="15" height="28" viewBox="0 0 15 28" fill="none" xmlns="http://www.w3.org/2000/svg">
<path d="M13.0631 16.716V27.5043C13.0631 27.7757 12.8156 28 12.5065 28C12.1998 28 11.952 27.7757 11.952 27.5043V16.716C11.952 16.2893 11.559 15.9376 11.076 15.9376C10.5957 15.9376 10.204 16.2893 10.204 16.716C10.204 16.9892 9.95223 17.2099 9.64628 17.2099C9.34033 17.2099 9.08854 16.9892 9.08854 16.716C9.08854 15.9869 9.58185 15.3709 10.2819 15.0991C8.87074 13.2322 8.0869 11.1735 7.66632 9.45796L5.12625 15.87C5.12427 15.8736 5.11478 15.8774 5.11281 15.8788C5.20491 16.1541 6.77061 21.0778 4.9124 26.6559C4.72503 27.2174 4.15109 27.5765 3.52694 27.5765C3.39294 27.5765 3.25261 27.5582 3.11664 27.5237C2.35098 27.3251 1.91301 26.6052 2.13911 25.9251C3.61667 21.4844 2.57115 17.4099 2.36521 16.7047C0.795154 13.9796 0.489207 11.4628 1.46239 9.22279C3.01268 5.64605 7.27222 4.23154 7.45247 4.17134C8.20074 3.92703 9.03873 4.27273 9.30871 4.9388C9.40595 5.17396 9.37433 5.72807 9.37433 5.77912C9.37433 5.82383 9.4265 10.7102 12.3472 14.3021C12.6192 14.6393 12.6172 15.073 12.386 15.4085C12.7931 15.732 13.0631 16.1911 13.0631 16.716ZM14.4062 2.52379C14.4062 3.91823 13.135 5.05145 11.5713 5.05145C10.0044 5.05145 8.73239 3.92034 8.73239 2.52379C8.73239 1.12548 10.0064 0 11.5733 0C13.135 0 14.4062 1.12548 14.4062 2.52379Z" fill="#1BBEF2"/>
</svg>
