<svg width="15" height="20" viewBox="0 0 15 20" fill="none" xmlns="http://www.w3.org/2000/svg">
<path d="M14.9616 18.3779L13.6759 12.7262C13.5325 12.1445 13.0194 11.7384 12.4284 11.7384H9.93024C9.57682 11.1498 9.11604 10.6336 8.57128 10.2185V6.52132C8.57128 5.53835 7.53347 4.93722 6.71049 5.3546L4.13904 6.65886C3.70064 6.88113 3.43266 7.3282 3.43266 7.82558V9.49374C3.42469 9.49652 3.41661 9.49741 3.40871 9.50054C1.33805 10.321 0 12.3086 0 14.5643C0 17.5609 2.40321 19.9987 5.35722 19.9987C8.33115 19.9987 10.8289 17.5007 10.7049 14.3469H11.4247L12.4668 19.011C12.6385 19.7064 13.3286 20.1378 14.0263 19.9599C14.7136 19.7856 15.1332 19.0759 14.9616 18.3779ZM5.35715 18.6945C3.11213 18.6945 1.28568 16.8417 1.28568 14.5643C1.28568 13.0187 2.11679 11.6453 3.43262 10.9316V12.6079C3.43262 13.3271 4.00508 13.9122 4.71407 13.9122C5.42307 13.9122 5.9998 13.3271 5.9998 12.6079V10.4733C6.0316 10.4847 6.06364 10.4957 6.09795 10.5021C8.02779 10.8617 9.42865 12.5701 9.42865 14.5644C9.42861 16.8417 7.60217 18.6945 5.35715 18.6945Z" fill="#1BBEF2"/>
<path d="M7.49987 0C6.43641 0 5.57127 0.877579 5.57127 1.95641C5.57127 3.03524 6.43638 3.91282 7.49987 3.91282C8.56337 3.91282 9.42848 3.03524 9.42848 1.95641C9.42848 0.877579 8.56333 0 7.49987 0Z" fill="#1BBEF2"/>
</svg>
