<svg width="11" height="24" viewBox="0 0 11 24" fill="none" xmlns="http://www.w3.org/2000/svg">
<path d="M9.90557 14.328V23.5751C9.90557 23.8078 9.70395 24 9.45208 24C9.20215 24 9.0002 23.8078 9.0002 23.5751V14.328C9.0002 13.9623 8.68005 13.6608 8.28647 13.6608C7.89514 13.6608 7.57596 13.9623 7.57596 14.328C7.57596 14.5622 7.3708 14.7514 7.12151 14.7514C6.87222 14.7514 6.66705 14.5622 6.66705 14.328C6.66705 13.7031 7.06901 13.175 7.63941 12.9421C6.48958 11.3419 5.8509 9.57725 5.5082 8.10682L3.43851 13.6029C3.4369 13.6059 3.42917 13.6092 3.42756 13.6104C3.50261 13.8464 4.77837 18.0667 3.26427 22.8479C3.1116 23.3292 2.64394 23.637 2.13538 23.637C2.02619 23.637 1.91185 23.6213 1.80106 23.5917C1.17719 23.4215 0.820322 22.8045 1.00455 22.2215C2.20849 18.4152 1.35659 14.9228 1.18878 14.3183C-0.0905226 11.9825 -0.339812 9.82529 0.45315 7.90525C1.71635 4.83947 5.18709 3.62704 5.33396 3.57544C5.94366 3.36602 6.62647 3.66234 6.84645 4.23325C6.92568 4.43482 6.89991 4.90978 6.89991 4.95353C6.89991 4.99185 6.94243 9.18014 9.32228 12.2589C9.54387 12.548 9.54226 12.9197 9.35385 13.2073C9.68559 13.4846 9.90557 13.8781 9.90557 14.328ZM11 2.16325C11 3.35848 9.96419 4.32981 8.69004 4.32981C7.41331 4.32981 6.37686 3.36029 6.37686 2.16325C6.37686 0.964695 7.41492 0 8.69165 0C9.96419 0 11 0.964695 11 2.16325Z" fill="#E0E0E0"/>
</svg>
